<svg xmlns="http://www.w3.org/2000/svg" viewBox="0 0 32 32" id="robot"><g data-name="robot"><path fill="#ffd105" d="M24.7,11.52a3.39,3.39,0,1,0-3-1.82l-3.5,3.5,0,0H14.81l0,0-3.5-3.5a3.36,3.36,0,1,0-3,1.82,3.48,3.48,0,0,0,1.57-.4L12,13.24H8.5a2,2,0,0,0-2,2v10a2,2,0,0,0,2,2h16a2,2,0,0,0,2-2v-10a2,2,0,0,0-2-2H21l2.12-2.12A3.48,3.48,0,0,0,24.7,11.52Z"></path><path fill="#231f20" d="M13.29 19a1.12 1.12 0 1 0-1.58 0A1.11 1.11 0 0 0 13.29 19zM19.29 19a1.12 1.12 0 1 0-1.58 0A1.11 1.11 0 0 0 19.29 19zM13 22.24a1 1 0 0 0 1 1h3a1 1 0 0 0 0-2H14A1 1 0 0 0 13 22.24z"></path><path fill="#231f20" d="M23.7,11.52a3.39,3.39,0,1,0-3-1.82l-3.5,3.5,0,0H13.81l0,0-3.5-3.5a3.36,3.36,0,1,0-3,1.82,3.48,3.48,0,0,0,1.57-.4L11,13.24H7.5a2,2,0,0,0-2,2v10a2,2,0,0,0,2,2h16a2,2,0,0,0,2-2v-10a2,2,0,0,0-2-2H20l2.12-2.12A3.48,3.48,0,0,0,23.7,11.52ZM6.33,9.11a1.38,1.38,0,0,1,0-1.95A1.37,1.37,0,0,1,8.38,9c-.05,0-.11.06-.15.1a1.3,1.3,0,0,0-.1.15A1.35,1.35,0,0,1,6.33,9.11ZM23.5,25.24H7.5v-10h16ZM22.72,7.16a1.38,1.38,0,0,1,2,1.95,1.35,1.35,0,0,1-1.8.1l-.1-.15s-.1-.06-.15-.1A1.37,1.37,0,0,1,22.72,7.16Z"></path></g></svg>