<svg xmlns="http://www.w3.org/2000/svg" viewBox="0 0 64 64" id="robot"><path fill="#dadada" d="M32,7a1,1,0,0,0-1,1v3a1,1,0,0,0,2,0V8A1,1,0,0,0,32,7Z"></path><rect width="10" height="9" x="27" y="18" fill="#dadada" rx="1"></rect><path fill="#0086cd" d="M38,10H26a5,5,0,0,0,0,10H38a5,5,0,0,0,0-10Z"></path><path fill="#dadada" d="M53 39.14V34a5 5 0 0 0-5-5 1 1 0 0 0 0 2 3 3 0 0 1 3 3v5.14A4 4 0 0 0 48 43a1 1 0 0 0 2 0 2 2 0 0 1 4 0 1 1 0 0 0 2 0A4 4 0 0 0 53 39.14zM16 29a5 5 0 0 0-5 5v5.14A4 4 0 0 0 8 43a1 1 0 0 0 2 0 2 2 0 0 1 4 0 1 1 0 0 0 2 0 4 4 0 0 0-3-3.86V34a3 3 0 0 1 3-3 1 1 0 0 0 0-2z"></path><rect width="6" height="6" x="15" y="27" fill="#0072ab" rx="1"></rect><rect width="6" height="6" x="43" y="27" fill="#0072ab" rx="1"></rect><rect width="18" height="6" x="23" y="43" fill="#0072ab" rx="1"></rect><path fill="#dadada" d="M47,47H17a7,7,0,0,0,0,14H47a7,7,0,0,0,0-14Z"></path><path fill="#0072ab" d="M29 53H23a1 1 0 0 0 0 2h6a1 1 0 0 0 0-2zM41 53H35a1 1 0 0 0 0 2h6a1 1 0 0 0 0-2z"></path><rect width="26" height="20" x="19" y="25" fill="#0086cd" rx="1"></rect><circle cx="32" cy="6" r="3" fill="#0072ab"></circle><circle cx="28" cy="15" r="2" fill="#dadada"></circle><circle cx="36" cy="15" r="2" fill="#dadada"></circle><path fill="#dadada" d="M32.71 28.29a1 1 0 0 0-1.42 0 1.15 1.15 0 0 0-.21.33A1 1 0 0 0 31 29a1 1 0 1 0 2 0 1 1 0 0 0-.08-.38A1.15 1.15 0 0 0 32.71 28.29zM25.29 28.29a1 1 0 1 0 1.42 0A1.05 1.05 0 0 0 25.29 28.29zM38.71 28.29A1 1 0 1 0 39 29 1 1 0 0 0 38.71 28.29z"></path><rect width="20" height="14" x="22" y="31" fill="#dadada" rx="1"></rect><path fill="#0072ab" d="M27 37H37a1 1 0 0 0 0-2H27a1 1 0 0 0 0 2zM37 39H27a1 1 0 0 0 0 2H37a1 1 0 0 0 0-2z"></path><circle cx="32" cy="54" r="4" fill="#0086cd"></circle><circle cx="20" cy="54" r="4" fill="#0086cd"></circle><circle cx="44" cy="54" r="4" fill="#0086cd"></circle><path fill="#231f20" d="M47,61H17a7,7,0,0,1,0-14H47a7,7,0,0,1,0,14ZM17,49a5,5,0,0,0,0,10H47a5,5,0,0,0,0-10Z"></path><path fill="#231f20" d="M32 58a4 4 0 1 1 4-4A4 4 0 0 1 32 58zm0-6a2 2 0 1 0 2 2A2 2 0 0 0 32 52zM20 58a4 4 0 1 1 4-4A4 4 0 0 1 20 58zm0-6a2 2 0 1 0 2 2A2 2 0 0 0 20 52zM15 44a1 1 0 0 1-1-1 2 2 0 0 0-4 0 1 1 0 0 1-2 0 4 4 0 0 1 8 0A1 1 0 0 1 15 44zM55 44a1 1 0 0 1-1-1 2 2 0 0 0-4 0 1 1 0 0 1-2 0 4 4 0 0 1 8 0A1 1 0 0 1 55 44zM44 58a4 4 0 1 1 4-4A4 4 0 0 1 44 58zm0-6a2 2 0 1 0 2 2A2 2 0 0 0 44 52z"></path><path fill="#231f20" d="M29 55H23a1 1 0 0 1 0-2h6a1 1 0 0 1 0 2zM41 55H35a1 1 0 0 1 0-2h6a1 1 0 0 1 0 2zM40 49H24a1 1 0 0 1-1-1V44a1 1 0 0 1 1-1H40a1 1 0 0 1 1 1v4A1 1 0 0 1 40 49zM25 47H39V45H25zM36 27H28a1 1 0 0 1-1-1V19a1 1 0 0 1 1-1h8a1 1 0 0 1 1 1v7A1 1 0 0 1 36 27zm-7-2h6V20H29z"></path><path fill="#231f20" d="M44 45H20a1 1 0 0 1-1-1V26a1 1 0 0 1 1-1H44a1 1 0 0 1 1 1V44A1 1 0 0 1 44 45zM21 43H43V27H21zM32 9a3 3 0 1 1 3-3A3 3 0 0 1 32 9zm0-4a1 1 0 1 0 1 1A1 1 0 0 0 32 5zM28 17a2 2 0 1 1 2-2A2 2 0 0 1 28 17zm0-2zM36 17a2 2 0 1 1 2-2A2 2 0 0 1 36 17zm0-2z"></path><path fill="#231f20" d="M32,12a1,1,0,0,1-1-1V8a1,1,0,0,1,2,0v3A1,1,0,0,1,32,12Z"></path><path fill="#231f20" d="M38 20H26a5 5 0 0 1 0-10H38a5 5 0 0 1 0 10zM26 12a3 3 0 0 0 0 6H38a3 3 0 0 0 0-6zM20 33H16a1 1 0 0 1-1-1V28a1 1 0 0 1 1-1h4a1 1 0 0 1 1 1v4A1 1 0 0 1 20 33zm-3-2h2V29H17zM48 33H44a1 1 0 0 1-1-1V28a1 1 0 0 1 1-1h4a1 1 0 0 1 1 1v4A1 1 0 0 1 48 33zm-3-2h2V29H45z"></path><path fill="#231f20" d="M12 41a1 1 0 0 1-1-1V34a5 5 0 0 1 5-5 1 1 0 0 1 0 2 3 3 0 0 0-3 3v6A1 1 0 0 1 12 41zM52 41a1 1 0 0 1-1-1V34a3 3 0 0 0-3-3 1 1 0 0 1 0-2 5 5 0 0 1 5 5v6A1 1 0 0 1 52 41zM32 30a1 1 0 0 1-1-1 1 1 0 0 1 .08-.38 1.15 1.15 0 0 1 .21-.33 1 1 0 0 1 1.42 0 1.15 1.15 0 0 1 .21.33A1 1 0 0 1 33 29a1 1 0 0 1-1 1zM26 30a1 1 0 1 1 .71-.29A1.05 1.05 0 0 1 26 30zM38 30a1 1 0 1 1 .71-.29A1.05 1.05 0 0 1 38 30zM41 45H23a1 1 0 0 1-1-1V32a1 1 0 0 1 1-1H41a1 1 0 0 1 1 1V44A1 1 0 0 1 41 45zM24 43H40V33H24z"></path><path fill="#231f20" d="M37 37H27a1 1 0 0 1 0-2H37a1 1 0 0 1 0 2zM37 41H27a1 1 0 0 1 0-2H37a1 1 0 0 1 0 2z"></path></svg>