<svg xmlns="http://www.w3.org/2000/svg" enable-background="new 0 0 66 66" viewBox="0 0 66 66" id="humanoid-face-robot"><path d="M36.84961 32.461c0 1.88495 1.03137 3.51831 2.54834 4.41254v-8.82458C37.88098 28.94318 36.84961 30.57642 36.84961 32.461zM26.56982 28.02301v8.87646c1.54303-.88763 2.59619-2.53418 2.59619-4.43848C29.16602 30.55707 28.11285 28.91065 26.56982 28.02301zM40.89795 37.47772c.35199.07648.71527.12195 1.08984.12195.35736 0 .70599-.03754 1.04297-.1073V33.211h-2.13281V37.47772z"></path><path d="M50.67749,31.982c-0.00677-0.04053-0.02417-0.07721-0.02417-0.11963c0-5.0957-4.14014-9.2417-9.22949-9.2417
		c-3.1001,0-5.94513,1.53442-7.66406,4.10248v13.87121l3.18652,3.18695c0.29297,0.29297,0.29297,0.76758,0,1.06055
		s-0.76758,0.29297-1.06055,0l-2.87598-2.87646l-2.87646,2.87646c-0.29296,0.29296-0.76757,0.29298-1.06055,0
		c-0.29297-0.29297-0.29297-0.76758,0-1.06055l3.18701-3.18701V26.72321c-1.71942-2.56805-4.56445-4.10254-7.66455-4.10254
		c-5.0957,0-9.2417,4.146-9.2417,9.2417c0,0.03241-0.01447,0.06-0.01843,0.09131c2.44011,18.53075,2.19137,17.72,2.63556,19.51172
		h8.49371V49.9483c0-0.41406,0.33594-0.75,0.75-0.75h11.58643c0.41406,0,0.75,0.33594,0.75,0.75v1.51709h8.49969
		C48.40405,50.02903,50.47298,33.56592,50.67749,31.982z M24.02734,39.09967c-3.56812,0-6.63867-2.90735-6.63867-6.63867
		c0-2.90729,1.88171-5.37817,4.48926-6.27417c0.01611-0.00732,0.03259-0.01184,0.04932-0.01807
		c0.66095-0.22119,1.36566-0.34595,2.1001-0.34595c3.66064,0,6.63867,2.97803,6.63867,6.63818
		C30.66602,36.12164,27.68799,39.09967,24.02734,39.09967z M41.98779,39.09967c-3.56001,0-6.63818-2.90063-6.63818-6.63867
		c0-2.90753,1.88202-5.37854,4.48956-6.27435c0.01587-0.00726,0.03204-0.01166,0.04846-0.01782
		c0.66095-0.22125,1.36572-0.34601,2.10016-0.34601c3.66064,0,6.63867,2.97803,6.63867,6.63818
		C48.62646,36.12164,45.64844,39.09967,41.98779,39.09967z"></path><path d="M40.89795 27.4447v4.2663h2.13281v-4.28094c-.33698-.06976-.68561-.10724-1.04297-.10724C41.61322 27.32282 41.24994 27.36823 40.89795 27.4447zM44.53076 28.02326v8.87591c1.54272-.88776 2.5957-2.53406 2.5957-4.43817C47.12646 30.55725 46.07349 28.91101 44.53076 28.02326z"></path><path d="M30.021,6.87116c-9.59322,1.54464-16.563,10.49332-15.27539,20.521l0.02002,0.15503
		c1.66571-3.77887,5.44189-6.42651,9.82959-6.42651c3.31543,0,6.38818,1.50293,8.41455,4.06836
		c2.02588-2.56543,5.09814-4.06836,8.41406-4.06836c4.38922,0,8.16602,2.65485,9.82605,6.44226l0.02258-0.17468
		c1.29102-10.05677-5.72207-18.97835-15.27588-20.52588v0.5625c0,0.41406-0.33594,0.75-0.75,0.75H30.771
		c-0.41406,0-0.75-0.33594-0.75-0.75V6.87116z"></path><rect width="10.086" height="3.043" x="27.964" y="50.698"></rect><path d="M22.93701 27.44483V31.711h2.13281v-4.28107c-.33685-.0697-.6853-.10712-1.04248-.10712C23.65259 27.32282 23.28918 27.36829 22.93701 27.44483zM34.49658 6.00104V2.8028c-.98438-.07129-1.98633-.06982-2.97559.00049V6.0108v.44531.21875h2.97559V6.00104z"></path><polygon points="53.289 40.155 53.665 37.257 51.509 37.257 51.135 40.155"></polygon><path d="M22.93701 37.4776c.35217.07654.71558.12207 1.09033.12207.35718 0 .70563-.03748 1.04248-.10718V33.211h-2.13281V37.4776zM18.88867 32.461c0 1.88489 1.03125 3.51819 2.54834 4.41248v-8.82446C19.91992 28.94324 18.88867 30.57648 18.88867 32.461zM52.75928 27.58356l-.01208.09375h2.40485c1.22822-12.39367-7.22496-23.13618-19.15546-24.7207v2.40967C46.66872 6.9667 54.14585 16.79361 52.75928 27.58356zM44.07349 60.61871h6.49585v-3.0625h-3.70526C46.06207 58.68829 45.12238 59.71716 44.07349 60.61871z"></path><polygon points="12.335 37.257 12.711 40.155 14.883 40.155 14.508 37.257"></polygon><path d="M52.2959 49.82135h-2.40979l-.01306.10107c-.33218 2.57608-1.1004 4.41945-2.06201 6.13379h2.7583c.04349-.19266-.2477-1.48828.75-1.48828h.97656V49.82135zM19.14697 57.55621h-3.5708v3.0625h6.34381C20.82712 59.67702 19.96146 58.70534 19.14697 57.55621z"></path><rect width="1.954" height="5.774" x="52.069" y="56.068"></rect><path d="M52.55334,29.17731c-0.01314,0.10184-0.90515,7.01677-0.84875,6.57959h4.58887v-6.57959H52.55334z"></path><polygon points="50.08 48.321 53.435 48.321 54.55 41.655 50.941 41.655"></polygon><path d="M47.604 52.96539h-8.05322v1.52637c0 .41406-.33594.75-.75.75H27.21436c-.41406 0-.75-.33594-.75-.75v-1.52637h-8.03711c2.27277 6.33323 8.20385 10.28467 14.59131 10.28467 3.3833 0 6.71484-1.12695 9.39404-3.1748.02441-.0249.05029-.04834.07764-.06982C44.80598 58.22082 46.59769 55.76563 47.604 52.96539zM13.27032 27.67731l-.01202-.09326C11.87251 16.80191 19.34071 6.96576 30.021 5.37543V3.40387C18.09067 5.00523 9.66068 15.75881 10.83417 27.67731H13.27032z"></path><polygon points="13.451 29.177 9.707 29.177 9.707 35.757 14.295 35.757"></polygon><path d="M15.57617,56.05621h2.6167c-1.24636-2.21771-1.62605-3.73978-2.06104-6.23486h-2.28271v4.74658h0.97705
		c0.41406,0,0.75,0.33594,0.75,0.75V56.05621z"></path><rect width="1.954" height="5.774" x="12.123" y="56.068"></rect><polygon points="15.921 48.321 15.059 41.655 11.45 41.655 12.565 48.321"></polygon></svg>